<?xml version="1.0" encoding="UTF-8"?>
<svg id="Ebene_1" xmlns="http://www.w3.org/2000/svg" version="1.1" viewBox="0 0 106 118">
  <!-- Generator: Adobe Illustrator 29.8.2, SVG Export Plug-In . SVG Version: 2.1.1 Build 3)  -->
  <path d="M48,0l3.51,2.99.99,75.02c1.02.02,1.46-4.35,1.54-5.47,1.58-21.99-1.28-45.84-.03-68.03.19-2.34,2.6-2.99,3.99-4.52h6c6.44,1.88,11.11,5.77,10.99,12.99-3.73.58-4.93-3.23-7.64-4.85-1.59-.95-8.35-3.56-8.35-.65v14.5c0,.14,1.75.11,2.55.94,1.08,1.12,1.25,3.79,2.94,3.06,8.04-8.39-5.02-9.94-3.48-17.99,5.91,2.18,12.09,5.79,11,12.99.75.87,6.26-3.74,8-1.49-.63,3.67-5.14,3.66-7.72,5.28-3.23,2.03-8.84,8.95-11.8,12.2-6.09,6.68,4.36,1.95,5.98-.02,2.13-2.6,3.92-15.05,11.53-7.98-3.26-1.25-10.39,5.64-7.99,8.01s12.08-9.76,14.97-6.97c.69.67-1.64,2.98,2.03,2.97-.15-1.54-.19-3.99,0-5.49.48-4,9.28,5.46,0,5.49.09.96,1.4,3.6,1,3.99l-6.98-2.99c-.25,2.15-1.78,3.83-2.01,6-3.7.35-17.65,3.16-18.99,6.51-.97,2.43,6.23,2.34,7.5,4.46,1,1.66.76,5.24-.04,7.01-1.63,3.63-7.95,3.61-8.38,4.11-.69.81.28,8-.09,9.9.56.63,6.5-3.45,7.35-4.14,3.91-3.2,2.23-5.99,9.64-3.85-1.46-5.49,2.77-3.62,4.09-5.67.68-1.06,1.61-8.52,1.46-9.9-.26-2.55-3.11-3.39-2.55-8.44,1.96-.19,4.02.13,6,0,.01,2.31-1.95,2.85-2.09,5.48s1.64,5.64,1.1,8.51l6.97-2.51c-1.52.98-5.22,6.09-3.97,7.5,1.85,2.1,3.82-4.83,4.67-5.03,6.01-1.43,3.66,1.69,4.33,3.04-1.16,1.36-11.99,4.11-9,6.99,1.93,1.85,9.26-3.45,10-5.99.05.16.92.53,1.04,1.52,1.2,10.23-15.93,6.61-21.49,7.53-.85.14-6.31,2.69-6.54,2.97-2.1,2.49,8.36,3.89,9.99,4.98,2.85,1.9,3.53,6.9,10,5,.04,1.1-.66,2.03-1,3-.81.32-2.45-.49-3.51.97s-1.09,6.3-2.29,8.74c-2.57,5.23-5.62,2.44-9.53,3.31-.72.16-.37,3.3-4.96,1.77-3.61-1.2-3.59-4.73-4.22-7.78-7.99,8.7-5.77,21.38,6.26,24.73,5.66,1.58,12.78-.15,17.24,3.26H18c4.93-3.26,11.63-1.78,17.8-3.7,12.81-3.99,13.24-18.38,4.2-26.3-4.43-3.88-8.91-5.89-13,0,4.67-1.49,8.48-.34,6,5,2.81-.1,4.75-1,4-3.99v-1c.53-.05,1.58.63,2,1,5.64,4.98-1.27,10.14-7,9l.52-2.97c-6.43,2.82-8.78.62-10.83-5.21-1.54-4.39.98-4.41-3.69-6.81-.69-.36-1.01-.72-2-1-.11-.21-.05-1.52,0-2,3.57,1.03,9.03-1.44,10-5,.93-.12,8.97-2.65,9.43-2.94,2.52-1.58-4.07-4.69-5.98-5.01-5.17-.85-19.2,2.17-21.25-4.75-.41-1.4-.87-3.44.8-4.3,1.81,3.58,4.05,6.04,8.47,6.05,2.3,0,2.13-1.86,1.08-3.1-.5-.59-7.21-2.89-8.56-2.94.16-2.32-1.25-4.76,2.49-4,3.74.76,2.93,4.96,6.51,4.99-.13-2.99-1.78-5.62-3.98-7.5,2.91-.23,4.82,2.08,6.97,3.51v-6.01h3.01c-.22,3.71.49,7.37,1,11.01-2.08-.55-1.23-3.06-2.99-2.99l-1.01,4.99c.46.42,1.91-.83,2.56-.9.35-.04.65,3.75,2.43,1.9.12-.13-.87-2.07-1-2.99.99.27,3.61-.32,4.01,0,.29.23-1.65,3.2.51,3.99,2.16.79.87-2.93,2.97-1.99l4.51,4v-18c5.93-.79,3.65,5.91,3.99,10h5.01c-.32-3.77,1.15-9.12-1.74-12.05-2.59-2.63-14.33-5.59-18.27-5.96.18,1.59.19,3.51-.51,4.97-2.8,5.81-4.77-1.8-5.48-4.96,1.97.12,4.03-.19,6,0-.25-2.16-1.75-3.85-2.01-6l-6.98,2.99c-.16-.15.71-3.69,1-3.99.17-.18,1.54.35,1.91-.12.84-1.08-1.54-3.55,2.58-2.88s6.76,8.01,11.51,6.99c.49-1.54-.93-1.82-1-1.99-.2-.53.22-1.66,0-2,.98-3.07-6.25-3.87-6-4.49,8.23-5.18,9.09,5.54,11.53,8.46,1.73,2.06,12.02,6.67,5.97.03-2.61-2.86-6.48-7.76-8.96-10.04-3.71-3.4-21.29-10.56-2.55-5.96-1.09-7.2,5.09-10.81,11-12.99,2.1,5.66-5.48,7.77-6.02,11.55-.31,2.16,1.84,8,4.01,6.44.31-.22,3.93-6.14,4-6.51.34-1.78.3-11.39-.44-12.53-3.12-4.78-13.79,7.85-15.54,6.04-.12-7.22,4.55-11.12,10.99-12.99h6.02ZM59,58c.47.47,4.54.03,4.99-1.53.97-3.37-4.77-5.84-5-3.97.23,1.17-.31,5.18.01,5.5ZM84,57.01c-1.89-1.56-4.48,4.75-3.99,5.99l1.56-2.05,2.42,1.05c-1.21-1.43.2-4.83,0-4.99h.01ZM46.91,61.1c-.68-.57-4.69-.27-5.47.83-2.91,4.12,1.48,10.58,6.56,10.06.49-.51-.37-10.29-1.09-10.89ZM37,76c-6.27-.71-5.61,2.97-8.04,4.52-.9.57-2.46-.39-3.01-.02-1.53,1.01-3.29,7.93.05,8.51-.58-7.36,6.15-7.81,12.01-7,2.66.37,6.74,1.97,7.01,4.99,1.53.3,1.19-1.51.95-2.45-.88-3.47-5.34-8.13-8.97-8.55ZM78,89c4.55,2.23,4.83-5.13,2.48-8.06-1.11-1.38-2.63.02-3.51-.5s-1.28-2.5-2.57-3.34c-6.6-4.32-13.6,3.41-15.41,9.4-.14,3.61,2.79-1.75,3.65-2.35,4.01-2.85,14.18-3.88,16.85.87.99,1.76,1.29,3.48-1.49,2.99-.8-5.33-7.71-3.79-11.01-1.5,3.26.91,1.26,4.67,4.02,7.49,1.86.12.67-2.77,1.19-4.28,1.56-4.54,3.59-1.79,5.8-.71h0ZM65.5,87v1c.65-.33.65-.67,0-1Z" fill="#0d6f58"/>
  <path d="M16,82c.44.82,1.96.9,2,1,.28.72,2.3,7.72,2,7.99-3.17,2.8-11.84-5.63-9.99-9.99.21-.22,5,.72,5.99,1Z" fill="#0d6f58"/>
  <path d="M87,76c2.75.04,10.6.5,8.52-2.98-2.89,3.43-8.38-2.23-6.52-4.01.89-.85,5.57.98,5.85.83s3.8-4.18,4-4.48c1.85-2.76,2.58-5.29,1.89-8.6-1.06-5.04-6.23-4.12-7.33-5.7-.46-.66.69-2.41.57-3.52-.16-1.48-2.84-3.78-1.98-4.54.54-.48,3.64.13,4.59.9,2.2,1.77.86,5.09,1.57,5.94.33.4,7.13,2.83,7.84,6.16v7c-5.82,3.98.77,9.71-3.96,14.54-3.48,3.56-7.85,1.86-12.04,1.46-.37-.84-2.55-1.49-3-3Z" fill="#13725c"/>
  <path d="M0,56c1.51-.96,1.43-2.95,2.72-4.06,1.29-1.11,4.89-1.83,5.12-2.1.72-.89-.63-4.16,1.57-5.93.95-.77,4.05-1.38,4.59-.9.68.6-1.6,3.26-1.97,4.55s.41,3.7-.13,4.35c-.2.25-3.03.39-4.29,1.2-4.87,3.14-2.46,12.25,1.82,14.98,2.09,1.33,7.18.46,7.57,2.44.5,2.5-4.46,4.84-6.52,2.5-2.08,3.48,5.77,3.02,8.52,2.98-.46,1.46-2.5,1.96-3,3-4.2.38-8.55,2.12-12.04-1.46-4.72-4.84,1.86-10.56-3.96-14.54v-7h0Z" fill="#0d6f58"/>
  <path d="M26,60c.13.92,1.12,2.87,1,2.99-1.78,1.85-2.09-1.94-2.43-1.9-.66.07-2.1,1.32-2.56.9l1.01-4.99c1.76-.06.91,2.44,2.99,2.99h-.01Z" fill="#1c7762"/>
  <path d="M84,57.01c.19.16-1.21,3.56,0,4.99l-2.42-1.05-1.56,2.05c-.5-1.24,2.1-7.54,3.99-5.99h-.01Z" fill="#1c7762"/>
  <path d="M65.5,87c.65.33.65.67,0,1v-1Z" fill="#13725c"/>
  <path d="M37,89l-.98-.5c.19-.56.53-.46.98-.5v1Z" fill="#13725c"/>
  <path d="M24,20.99c-9.15-.05-14.85,8.57-8.57,16.1.84,1.01,5.59,2.77,3.56,4.91-1.33,1.4-8.1-4.15-10-2.99-.09.05.73,1.32.38,2-1.26,2.44-4.76,3.35-3.38,8-8.36,2.72-3.5-12.53-.48-14,2.21-1.08.76,2.45,2.48,1.99-.42-5-1.75-10.49,1.52-14.98,1.58-2.16,3.99-2.21,5.44-3.56,1.08-1,5.18-10.52,6.87-4.78.71,2.43-.38,5.01,2.18,7.31Z" fill="#13725c"/>
  <path d="M37.99,47c-6.17-2.05-2.86-.44-4.5,2.98-2.28,4.73-9.11.32-4.93-4.92,2.54-3.18,9.25-3.05,9.43,1.94Z" fill="#1c7762"/>
  <path d="M29,7.01c.42.39-1.88,7.73-.99,9.49-9.52,2.02-3.4-13.54.99-9.49Z" fill="#0d6f58"/>
  <path d="M19,74c.01-1.7-2.23-3.95,2.49-5,1.46.73,1.08,3.12,1.77,3.8.84.83,3.6-.97,2.74,2.19-2.24.29-4.98.16-7-1h0Z" fill="#1c7762"/>
  <path d="M19.99,44.01c1.7,3.48-3.93,7.85-5.99,5.99-1.04-.94,3.19-7.57,5.99-5.99Z" fill="#1c7762"/>
  <path d="M25.91,24.1c2.7,4.38-4.31,2.43-6.91,1.89-.95-4.01,6.15-3.12,6.91-1.89Z" fill="#1c7762"/>
  <path d="M19,33c-4.17,1.22-5.58-4.72-2.49-5.99,3.8-1.56,2.27,3.55,2.49,5.99Z" fill="#13725c"/>
  <path d="M31,70.01c-1.95,3.79-6.91,2.26-5.99-2.01l5.99,2.01Z" fill="#1c7762"/>
  <path d="M97,38c2.4-1.57,1.79-4.77,4.46-1.96,3.07,3.24,2.65,8.83,2.54,12.96-6.08.74-3.04-.94-4.19-4.28s-3.58-1-2.8-6.72c-1.27.83-9.19,4.83-9.99,3.99-1.89-1.97,3.74-4.65,4.76-6.73,4.1-8.26-1.5-13.84-9.77-14.28,2.73-2.38,1.46-13.44,6.44-6.93,3.35,4.37,4.33,4.13,7.01,6.99,4.86,5.19,2.32,11.24,1.55,16.95h-.01Z" fill="#13725c"/>
  <path d="M78,17c1.14-3.71-3.78-11.04,1.5-10.01s4.88,11.07-1.5,10.01Z" fill="#13725c"/>
  <path d="M92,49.99c-2.56,2.3-8.43-4.69-6.99-5.99,2.56-2.3,8.43,4.69,6.99,5.99Z" fill="#1c7762"/>
  <path d="M87,74c-2.44,1.17-6.86,2.35-6-1,.21-.14,1.28.33,1.76-.2.71-.77.3-4.34,2.72-3.8,3.42.76,1.51,4.25,1.51,5h0Z" fill="#1c7762"/>
  <path d="M87,25.99l-6.49,1.02c-2.83-4.3,6.8-5.98,6.49-1.02Z" fill="#1c7762"/>
  <path d="M80.99,68.01c1.4,4.27-4.8,5.42-5.99,2.49-.13-.31,5.19-3.31,5.99-2.49Z" fill="#1c7762"/>
  <path d="M89,83c2.26-.89,4.43-2.16,6.99-2,1.84,4.34-6.79,12.78-9.99,9.99-.77-.67,2.52-6.62,3-7.99Z" fill="#13725c"/>
  <path d="M76.76,44.24c5.55,5.55-5.2,13.92-4.77,1.76l-3.99,1c-.22-4.44,6.41-5.1,8.75-2.76h0Z" fill="#13725c"/>
</svg>